<?xml version="1.0" encoding="UTF-8" standalone="no"?>
<!-- Created with Inkscape (http://www.inkscape.org/) -->

<svg
   xmlns:dc="http://purl.org/dc/elements/1.1/"
   xmlns:cc="http://creativecommons.org/ns#"
   xmlns:rdf="http://www.w3.org/1999/02/22-rdf-syntax-ns#"
   xmlns:svg="http://www.w3.org/2000/svg"
   xmlns="http://www.w3.org/2000/svg"
   xmlns:xlink="http://www.w3.org/1999/xlink"
   xmlns:sodipodi="http://sodipodi.sourceforge.net/DTD/sodipodi-0.dtd"
   xmlns:inkscape="http://www.inkscape.org/namespaces/inkscape"
   width="800"
   height="829.08771"
   id="svg9867"
   version="1.1"
   inkscape:version="0.48.4 r9939"
   sodipodi:docname="Новый документ 10">
  <defs
     id="defs9869">
    <linearGradient
       inkscape:collect="always"
       xlink:href="#linearGradient7922"
       id="linearGradient7968"
       gradientUnits="userSpaceOnUse"
       gradientTransform="matrix(8.4890975,-3.0897788,0.26589309,0.73053526,31418.997,-13647.077)"
       x1="-4045.4194"
       y1="-4335.5898"
       x2="-4045.7515"
       y2="-4118.5254" />
    <linearGradient
       inkscape:collect="always"
       id="linearGradient7922">
      <stop
         style="stop-color:#9eb8c5;stop-opacity:1"
         offset="0"
         id="stop7924" />
      <stop
         style="stop-color:#ebebeb;stop-opacity:1"
         offset="1"
         id="stop7926" />
    </linearGradient>
    <linearGradient
       inkscape:collect="always"
       xlink:href="#linearGradient7928"
       id="linearGradient7970"
       gradientUnits="userSpaceOnUse"
       gradientTransform="matrix(0.93969262,-0.34202014,0.34202014,0.93969262,1581.9592,-1760.1169)"
       x1="-4428.0562"
       y1="-4331.5469"
       x2="-4426.7607"
       y2="-4128.7324" />
    <linearGradient
       id="linearGradient7928"
       inkscape:collect="always">
      <stop
         id="stop7930"
         offset="0"
         style="stop-color:#9eb8c5;stop-opacity:1" />
      <stop
         id="stop7932"
         offset="1"
         style="stop-color:#d5d5d5;stop-opacity:1" />
    </linearGradient>
    <linearGradient
       inkscape:collect="always"
       xlink:href="#linearGradient7934"
       id="linearGradient7972"
       gradientUnits="userSpaceOnUse"
       gradientTransform="matrix(0.93969262,-0.34202014,0.34202014,0.93969262,1581.9592,-1760.1169)"
       x1="-4425.3062"
       y1="-4323.2969"
       x2="-4405.6602"
       y2="-4137.8794" />
    <linearGradient
       id="linearGradient7934"
       inkscape:collect="always">
      <stop
         id="stop7936"
         offset="0"
         style="stop-color:#9eb8c5;stop-opacity:1" />
      <stop
         id="stop7938"
         offset="1"
         style="stop-color:#cfcfcf;stop-opacity:1" />
    </linearGradient>
    <linearGradient
       inkscape:collect="always"
       xlink:href="#linearGradient7940"
       id="linearGradient7974"
       gradientUnits="userSpaceOnUse"
       gradientTransform="matrix(0.93969262,-0.34202014,0.34202014,0.93969262,1581.9592,-1760.1169)"
       x1="-4404.4062"
       y1="-4321.0474"
       x2="-4401.5557"
       y2="-4140.8345" />
    <linearGradient
       id="linearGradient7940"
       inkscape:collect="always">
      <stop
         id="stop7942"
         offset="0"
         style="stop-color:#9eb8c5;stop-opacity:1" />
      <stop
         id="stop7944"
         offset="1"
         style="stop-color:#f0f0f0;stop-opacity:1" />
    </linearGradient>
    <linearGradient
       inkscape:collect="always"
       xlink:href="#linearGradient7824"
       id="linearGradient7976"
       gradientUnits="userSpaceOnUse"
       gradientTransform="matrix(0.93969262,-0.34202014,0.34202014,0.93969262,1581.9592,-1760.1169)"
       x1="-4400.5562"
       y1="-4316.0781"
       x2="-4395.6958"
       y2="-4180.73" />
    <linearGradient
       inkscape:collect="always"
       id="linearGradient7824">
      <stop
         style="stop-color:#9eb8c5;stop-opacity:1"
         offset="0"
         id="stop7826" />
      <stop
         style="stop-color:#ffffff;stop-opacity:1"
         offset="1"
         id="stop7828" />
    </linearGradient>
  </defs>
  <sodipodi:namedview
     id="base"
     pagecolor="#ffffff"
     bordercolor="#666666"
     borderopacity="1.0"
     inkscape:pageopacity="0.0"
     inkscape:pageshadow="2"
     inkscape:zoom="0.35"
     inkscape:cx="22.514479"
     inkscape:cy="23.332387"
     inkscape:document-units="px"
     inkscape:current-layer="layer1"
     showgrid="false"
     fit-margin-top="0"
     fit-margin-left="0"
     fit-margin-right="0"
     fit-margin-bottom="0"
     inkscape:window-width="1920"
     inkscape:window-height="1018"
     inkscape:window-x="-8"
     inkscape:window-y="-8"
     inkscape:window-maximized="1" />
  <metadata
     id="metadata9872">
    <rdf:RDF>
      <cc:Work
         rdf:about="">
        <dc:format>image/svg+xml</dc:format>
        <dc:type
           rdf:resource="http://purl.org/dc/dcmitype/StillImage" />
        <dc:title></dc:title>
      </cc:Work>
    </rdf:RDF>
  </metadata>
  <g
     inkscape:label="Layer 1"
     inkscape:groupmode="layer"
     id="layer1"
     transform="translate(-352.48552,273.39317)">
    <g
       id="g7946"
       transform="matrix(2.5713138,0,0,2.5713138,11050.758,11077.109)">
      <path
         id="path6914"
         d="m -4072.4774,-4316.8772 c -31.4943,11.463 -43.9758,56.6155 -27.8809,100.8358 16.0948,44.2201 54.6689,70.7566 86.1633,59.2936 16.91,-6.1547 28.3162,-22.0115 32.7842,-42.2282 -18.8167,-8.313 -35.6318,-26.4475 -44.4147,-50.5782 -7.7856,-21.3907 -7.7078,-43.2422 -1.2755,-60.7926 -14.6921,-8.986 -30.785,-11.8412 -45.3764,-6.5304 z"
         style="fill:url(#linearGradient7968);fill-opacity:1;stroke:none"
         inkscape:connector-curvature="0" />
      <path
         sodipodi:nodetypes="scccccs"
         inkscape:connector-curvature="0"
         id="path7744"
         d="m -4072.4774,-4316.8772 c -21.3159,7.7583 -33.9183,30.9577 -34.8511,58.8435 13.2461,43.6996 37.4914,85.9526 78.1612,93.1339 -46.8443,-18.3063 -64.3806,-61.6474 -59.7283,-101.9713 l 16.8903,-15.7252 28.378,-35.049 c -9.727,-2.6845 -19.5933,-2.6011 -28.8501,0.7681 z"
         style="fill:#314543;fill-opacity:1;stroke:none" />
      <path
         id="path6916"
         d="m -4053.8528,-4318.3351 c -31.4944,11.463 -44.7414,54.5119 -29.591,96.1373 15.1503,41.6253 52.9588,66.0582 84.4532,54.5952 12.887,-4.6905 22.7207,-14.6727 28.8024,-27.6763 -23.1525,-5.1924 -45.1355,-25.422 -55.6373,-54.2753 -9.1349,-25.098 -7.4341,-50.8195 2.6387,-69.5002 -10.2518,-2.9149 -20.7627,-2.8852 -30.666,0.7193 z"
         style="fill:url(#linearGradient7970);fill-opacity:1;stroke:none"
         inkscape:connector-curvature="0" />
      <path
         sodipodi:nodetypes="sccccs"
         inkscape:connector-curvature="0"
         id="path7749"
         d="m -4053.8528,-4318.3351 c -22.931,8.3462 -36.1715,33.4339 -35.8378,62.5281 10.4226,36.9642 29.729,70.0186 63.1498,79.5755 -49.2197,-22.708 -65.6202,-93.4041 -30.4163,-121.486 l 23.189,-23.2721 c -6.7916,-0.5422 -13.5721,0.2841 -20.0847,2.6545 z"
         style="fill:#314543;fill-opacity:1;stroke:none" />
      <path
         id="path6918"
         d="m -4034.3749,-4323.2961 c -31.4944,11.463 -45.0477,53.6705 -30.2751,94.2579 14.7726,40.5873 52.2748,64.1788 83.7692,52.7158 9.4007,-3.4216 17.188,-9.5876 23.1158,-17.6252 -27.3828,0.4641 -55.6857,-21.6072 -68.0605,-55.6066 -10.3589,-28.461 -6.7771,-57.7015 7.1406,-76.5927 -5.3088,0.089 -10.5752,0.9891 -15.69,2.8508 z"
         style="fill:url(#linearGradient7972);fill-opacity:1;stroke:none"
         inkscape:connector-curvature="0" />
      <path
         sodipodi:nodetypes="scccccs"
         inkscape:connector-curvature="0"
         id="path7754"
         d="m -4034.3749,-4323.2961 c -21.8243,7.9434 -35.0187,30.6561 -36.1571,57.3567 6.1948,33.2544 20.5014,62.8851 48.6807,75.7299 -47.2344,-31.4377 -48.9093,-103.9801 -12.0164,-124.658 l 15.1642,-11.2393 c 0.01,-0.014 0.01,-0.028 0.018,-0.04 -5.3088,0.089 -10.5751,0.9891 -15.69,2.8507 z"
         style="fill:#314543;fill-opacity:1;stroke:none" />
      <path
         id="path6920"
         d="m -4016.0509,-4329.9655 c -31.4944,11.463 -45.0477,53.6705 -30.2751,94.2579 14.7726,40.5873 52.2748,64.1788 83.7692,52.7158 7.7939,-2.8367 14.5034,-7.5328 19.9426,-13.6436 -31.3774,10.9818 -68.5264,-12.5724 -83.2113,-52.9188 -11.1275,-30.5726 -6.1871,-62.0605 10.3913,-80.6358 -0.206,0.075 -0.4101,0.1493 -0.6167,0.2245 z"
         style="fill:url(#linearGradient7974);fill-opacity:1;stroke:none"
         inkscape:connector-curvature="0" />
      <path
         id="path7759"
         d="m -4016.0509,-4329.9655 c -19.7228,7.1785 -32.394,26.4218 -35.4946,49.7661 2.335,32.2448 12.8181,61.707 38.0232,77.5138 -21.031,-18.0204 -29.3446,-36.7384 -31.0106,-63.6379 -1.2426,-22.2131 2.694,-32.856 13.9557,-53.3 l 9.9602,-3.7915 c 1.5703,-2.4101 3.3086,-4.6749 5.1828,-6.775 -0.206,0.075 -0.41,0.1492 -0.6167,0.2245 z"
         style="fill:#314543;fill-opacity:1;stroke:none"
         inkscape:connector-curvature="0" />
      <path
         id="path6922"
         d="m -4023.9473,-4317.5804 c -13.697,18.9016 -17.1664,47.9507 -6.8738,76.2295 14.7726,40.5873 52.2748,64.1788 83.7692,52.7158 12.5402,-4.5643 22.2195,-14.0046 28.4158,-26.2719 -5.966,8.2519 -13.8495,14.5851 -23.4202,18.0686 -31.4944,11.463 -68.9966,-12.1285 -83.7692,-52.7158 -8.8977,-24.4464 -7.5079,-49.4799 1.8782,-68.0262 z"
         style="fill:url(#linearGradient7976);fill-opacity:1;stroke:none"
         inkscape:connector-curvature="0" />
      <path
         id="path7764"
         d="m -4035.4622,-4289.6448 c -2.5455,14.0236 -1.5427,29.7625 3.6123,45.376 6.0591,13.1844 14.9353,24.3428 27.4024,32.1612 -21.031,-18.0204 -29.3446,-36.7384 -31.0106,-63.6379 -0.2896,-5.1764 -0.3043,-9.7091 0,-13.8993 z"
         style="fill:#314543;fill-opacity:1;stroke:none"
         inkscape:connector-curvature="0" />
      <path
         id="path6876"
         d="m -4036.875,-4414.2812 -57.625,22.2812 -14.8438,9.1875 c -19.8608,27.4265 -39.7055,54.912 -51.2812,100.75 l 0.7188,30.4063 c 9.6293,33.0261 21.9491,66.9583 45.5937,104.6562 8.2824,8.9567 16.5535,17.9183 27.5937,26.875 30.5899,13.2918 60.2789,24.3852 93.6876,28.2812 24.2,-2.336 47.2986,-10.9859 72.4687,-22.9687 30.4141,-31.3808 48.7608,-62.5674 66.125,-95.8125 6.0418,-16.6733 4.0135,-23.9537 4.9375,-34.6562 -9.1565,-66.716 -42.8014,-117.4462 -64.3438,-139.3126 -27.0789,-14.8171 -64.0071,-26.145 -123.0312,-29.6874 z m -20.4375,94.75 c 27.8322,-0.067 57.42,24.6579 71,61.9687 16.0948,44.2202 3.6194,89.3495 -27.875,100.8125 -31.4944,11.463 -70.0927,-15.0923 -86.1875,-59.3125 -16.0948,-44.2202 -3.6194,-89.3495 27.875,-100.8125 4.921,-1.7911 10.0334,-2.6439 15.1875,-2.6562 z"
         style="fill:#243441;fill-opacity:1;stroke:none"
         inkscape:connector-curvature="0" />
      <path
         sodipodi:nodetypes="ccccccc"
         inkscape:connector-curvature="0"
         id="path6878"
         d="m -4036.875,-4414.2812 -57.625,22.2812 -0.625,0.375 c 26.1978,11.3101 51.4594,22.8129 108.8125,28.625 l 19.4375,-3.9062 51.125,-18.6876 c -26.9056,-14.3183 -63.4568,-25.2264 -121.125,-28.6874 z"
         style="fill:#819499;fill-opacity:1;stroke:none" />
      <path
         id="path6894"
         d="m -4134.8438,-4345.0312 c -10.2191,17.3787 -19.2967,37.2909 -25.7812,62.9687 l 0.7188,30.4063 c 9.6292,33.0261 21.9491,66.9583 45.5937,104.6562 8.2824,8.9567 16.5536,17.9183 27.5937,26.875 30.5899,13.2918 60.2788,24.3853 93.6876,28.2812 24.1999,-2.3359 47.2986,-10.9859 72.4687,-22.9687 30.4141,-31.3808 48.7608,-62.5674 66.125,-95.8125 6.0418,-16.6733 4.0135,-23.9537 4.9375,-34.6562 -0.2646,-1.928 -0.539,-3.8492 -0.8438,-5.75 l -67.0312,38.2812 c -12.255,-15.7871 -18.8872,-26.8886 -36.7812,-47.375 l -15.5313,-24.0625 -12.375,-0.3437 15.5625,71.4374 -8.1562,49.4688 -38.5313,44.5625 -41.375,-7.0625 -48.0625,-30.7812 -24.4062,-53.375 -12.0313,-55.875 14.5,-67.875 -10.2813,-11 z"
         style="fill:#92a7aa;fill-opacity:1;stroke:none"
         inkscape:connector-curvature="0" />
      <path
         sodipodi:nodetypes="cccccccccc"
         inkscape:connector-curvature="0"
         id="path6886"
         d="m -3909.8125,-4380.3438 -4.375,1.0626 -48.4375,23.3437 c -9.4093,7.5765 -9.2903,8.347 -7.7812,17.6563 8.4983,44.4481 28.7995,84.2075 51.2812,123.0624 3.9578,3.7533 11.974,4.0953 21.5625,3.1563 l 43.125,-15.5313 c 4.2339,-1.5536 3.7228,-8.246 4.6875,-12.3437 0.041,-1.7256 0.089,-3.4776 0.25,-5.3437 -8.6066,-62.7092 -38.8213,-111.2956 -60.3125,-135.0626 z"
         style="fill:#e2f2ef;fill-opacity:1;stroke:none" />
      <path
         sodipodi:nodetypes="cccccc"
         inkscape:connector-curvature="0"
         id="path6892"
         d="m -4086.7237,-4359.126 c 8.4171,-10.4339 8.4376,-10.189 8.8389,-22.6274 24.2455,10.39 56.9932,15.6786 90.5096,20.506 4.3605,1.0186 11.062,8.9631 13.0815,16.2635 5.8784,26.9297 9.112,50.333 20.1526,84.1457 -51.5713,-59.32 -89.507,-69.5521 -132.5826,-98.2878 z"
         style="fill:#fefefe;fill-opacity:1;stroke:none" />
      <path
         id="path6900"
         d="m -3851.3125,-4223.5938 c -0.6457,-0.037 -1.3383,0.02 -2.0625,0.2188 l -45.9688,20.5312 c -9.018,3.6769 -15.7269,13.0703 -22.9687,21.1876 -15.2728,23.6851 -28.0649,38.0029 -46.6875,74.25 -0.7071,4.4782 1.4252,6.1472 6.375,4.9687 l 40.75,-11.75 c 0.4397,-0.2079 0.8715,-0.4151 1.3125,-0.625 30.4141,-31.3808 48.7608,-62.5674 66.125,-95.8125 1.8279,-5.0443 2.9067,-9.2265 3.5625,-12.9062 -0.147,-0.02 -0.2867,-0.054 -0.4375,-0.063 z"
         style="fill:#769295;fill-opacity:1;stroke:none"
         inkscape:connector-curvature="0" />
      <path
         id="path6910"
         d="m -4095.1521,-4360.5362 c -49.5412,18.0316 -69.1915,89.0297 -43.8805,158.5711 25.311,69.5413 86.0007,111.2981 135.5419,93.2666 49.5414,-18.0316 69.1916,-89.0298 43.8807,-158.5711 -25.311,-69.5414 -86.0007,-111.2981 -135.5421,-93.2666 z m 22.6747,43.659 c 31.4945,-11.4631 70.0794,15.1028 86.1743,59.3231 16.0948,44.2201 3.6025,89.3433 -27.8919,100.8063 -31.4944,11.463 -70.0685,-15.0735 -86.1633,-59.2936 -16.0949,-44.2203 -3.6134,-89.3728 27.8809,-100.8358 z"
         style="fill:#afc2c2;fill-opacity:1;stroke:none"
         inkscape:connector-curvature="0" />
      <path
         id="path6912"
         d="m -4083.5448,-4328.6454 c -36.9868,13.4621 -51.6587,66.481 -32.759,118.4076 18.8998,51.9266 64.2083,83.0811 101.1951,69.619 36.987,-13.4621 51.6696,-66.4516 32.7699,-118.3782 -18.8998,-51.9267 -64.219,-83.1106 -101.206,-69.6484 z m 11.0674,11.7682 c 31.4945,-11.4631 70.0794,15.1028 86.1743,59.3231 16.0948,44.2201 3.6025,89.3433 -27.8919,100.8063 -31.4944,11.463 -70.0685,-15.0735 -86.1633,-59.2936 -16.0949,-44.2203 -3.6134,-89.3728 27.8809,-100.8358 z"
         style="fill:#a8bec8;fill-opacity:1;stroke:none"
         inkscape:connector-curvature="0" />
      <path
         id="path7846"
         d="m -4120.6599,-4224.5817 c 1.1793,4.7634 2.6175,9.5672 4.3561,14.3439 18.8998,51.9266 64.2084,83.0811 101.1951,69.619 13.0929,-4.7654 23.3835,-14.4798 30.3831,-27.3537 l -6.0896,-7.9598 c -5.8144,8.9137 -13.6763,15.6527 -23.3798,19.1845 -31.4944,11.463 -70.0685,-15.0735 -86.1633,-59.2936 -1.5053,-4.1357 -2.7765,-8.2984 -3.7897,-12.4218 l -16.5119,3.8815 z"
         style="fill:#323335;fill-opacity:1;stroke:none"
         inkscape:connector-curvature="0" />
      <path
         id="path7854"
         d="m -4094.828,-4203.2224 -14.7752,8.4705 c 19.3652,38.1894 53.5748,61.2441 84.3818,56.6832 l 4.7181,-16.9151 c -26.912,5.4597 -57.382,-14.5409 -74.3247,-48.2386 z"
         style="fill:#fefefd;fill-opacity:1;stroke:none"
         inkscape:connector-curvature="0" />
    </g>
  </g>
</svg>
